<svg width="49" height="49" viewBox="0 0 49 49" fill="none" xmlns="http://www.w3.org/2000/svg">
<circle cx="24.5" cy="24.5" r="24.5" fill="#FEC220" fill-opacity="0.5"/>
<circle cx="24.5" cy="24.5" r="17.5" fill="#FEC220"/>
<path d="M31.6632 29.6894L28.0755 26.1017C28.6348 25.1837 28.9298 24.1292 28.928 23.0542C28.928 19.8102 26.1169 17 22.8729 17C22.1016 16.9999 21.3379 17.1517 20.6253 17.4468C19.9127 17.7419 19.2652 18.1745 18.7198 18.7198C18.1745 19.2652 17.7419 19.9127 17.4468 20.6253C17.1517 21.3379 16.9999 22.1016 17 22.8729C17 26.116 19.8111 28.9271 23.0542 28.9271C24.0937 28.928 25.1147 28.6514 26.0115 28.1258L29.6182 31.7344C29.7878 31.9036 30.0176 31.9986 30.2572 31.9986C30.4967 31.9986 30.7265 31.9036 30.8961 31.7344L31.7914 30.8391C32.1436 30.4869 32.0154 30.0416 31.6632 29.6894ZM18.8076 22.8729C18.8075 22.3389 18.9126 21.8102 19.1168 21.3169C19.321 20.8235 19.6205 20.3753 19.998 19.9977C20.3755 19.6201 20.8237 19.3206 21.3169 19.1162C21.8102 18.9119 22.3389 18.8067 22.8729 18.8067C25.1191 18.8067 27.1204 20.807 27.1204 23.0542C27.1202 24.1325 26.6917 25.1667 25.9292 25.9292C25.1667 26.6917 24.1325 27.1202 23.0542 27.1204C20.808 27.1195 18.8076 25.1182 18.8076 22.8729V22.8729Z" fill="#21364A"/>
</svg>
