<svg width="83" height="83" viewBox="0 0 83 83" fill="none" xmlns="http://www.w3.org/2000/svg">
<path d="M55.9136 37.2788C50.2064 37.2788 45.5595 32.6319 45.5595 26.9247C45.5595 21.2176 50.2064 16.5707 55.9136 16.5707C61.6207 16.5707 66.2677 21.2176 66.2677 26.9247C66.2677 32.6319 61.6207 37.2788 55.9136 37.2788ZM55.9136 20.7123C52.4885 20.7123 49.7011 23.4996 49.7011 26.9247C49.7011 30.3499 52.4885 33.1372 55.9136 33.1372C59.3387 33.1372 62.126 30.3499 62.126 26.9247C62.126 23.4996 59.3387 20.7123 55.9136 20.7123Z" fill="#FEC220"/>
<path d="M2.07244 82.8367C1.53403 82.8367 1.0039 82.6255 0.606308 82.232C0.0389057 81.6646 -0.151609 80.8156 0.12588 80.0618C6.49984 62.5386 13.201 53.6507 20.0388 53.6507C22.296 53.6507 24.4041 54.6198 26.3134 56.5249C29.3285 59.54 29.4362 62.5427 28.9972 64.5307C27.6139 70.7763 18.7922 76.8935 2.78066 82.7166C2.54873 82.7994 2.30852 82.8408 2.07244 82.8408V82.8367ZM20.043 57.7881C17.9929 57.7881 15.5783 59.5856 13.0643 62.9859C10.5918 66.3282 8.10679 71.091 5.65909 77.1792C11.1882 74.9552 15.6321 72.698 18.9082 70.4491C23.3273 67.4133 24.636 65.065 24.9549 63.632C25.2738 62.199 24.7603 60.8281 23.3853 59.4531C22.267 58.3348 21.1736 57.7923 20.0388 57.7923L20.043 57.7881Z" fill="#FEC220"/>
<path d="M80.7633 0.00414163C70.0158 0.00414163 60.4404 1.82646 52.2938 5.42139C45.5802 8.38679 39.8316 12.545 35.2055 17.7883C34.344 18.7657 33.5447 19.7556 32.8033 20.7495C29.2332 20.9856 25.5803 22.4062 21.9357 24.974C18.8502 27.1442 15.7522 30.151 12.7206 33.9075C7.62636 40.2193 4.49529 46.4442 4.36276 46.7051C3.91132 47.6121 4.18053 48.7138 5.00057 49.3061C5.36504 49.5711 5.79162 49.6995 6.21407 49.6995C6.7442 49.6995 7.27432 49.4966 7.67606 49.099C7.69677 49.0783 9.67647 47.1317 13.0519 45.2224C15.8351 43.6486 20.1258 41.7973 25.3152 41.4701C26.6281 44.829 30.3846 48.8463 32.1862 50.6479C33.9878 52.4496 38.0052 56.206 41.364 57.5189C41.0369 62.7084 39.1856 66.9991 37.6117 69.7822C35.6983 73.1618 33.7559 75.1374 33.7393 75.1539C33.0228 75.8704 32.9317 77.0052 33.5239 77.8294C33.9257 78.3844 34.5552 78.6909 35.2055 78.6909C35.5202 78.6909 35.835 78.6205 36.129 78.4714C36.39 78.3388 42.6148 75.2078 48.9267 70.1136C52.6831 67.0819 55.6899 63.984 57.8601 60.8985C60.428 57.2497 61.8444 53.6009 62.0846 50.0308C63.0744 49.2936 64.0643 48.4943 65.0459 47.6287C70.2892 43.0025 74.4473 37.2539 77.4128 30.5403C81.0077 22.3979 82.83 12.8183 82.83 2.07081V0H80.7592L80.7633 0.00414163ZM12.8697 40.6252C16.8166 34.8973 22.851 27.7945 29.6515 25.5621C26.9636 30.2711 25.572 34.595 25.0709 37.3368C20.2707 37.6308 16.1333 39.0265 12.8697 40.6252ZM42.2172 69.9562C43.8159 66.6926 45.2116 62.5593 45.5015 57.7633C48.2391 57.2621 52.5671 55.8705 57.272 53.1868C55.0356 59.9749 47.9368 66.0092 42.2131 69.9562H42.2172ZM62.3082 44.5266C53.6937 52.1265 44.7726 53.8453 43.4887 53.8453C43.4804 53.8453 42.6314 53.8287 40.3452 52.2176C38.7507 51.0952 36.8911 49.4966 35.1185 47.724C33.3459 45.9513 31.7472 44.0918 30.6248 42.4972C29.0137 40.211 28.9972 39.362 28.9972 39.3537C28.9972 38.0698 30.7159 29.1488 38.3158 20.5342C47.4108 10.2298 61.3308 4.59306 78.6718 4.17476C78.2535 21.5157 72.6209 35.4358 62.3124 44.5308L62.3082 44.5266Z" fill="#FEC220"/>
</svg>
